<?xml version="1.0" encoding="UTF-8" standalone="no"?>
<svg
   xmlns:dc="http://purl.org/dc/elements/1.1/"
   xmlns:cc="http://creativecommons.org/ns#"
   xmlns:rdf="http://www.w3.org/1999/02/22-rdf-syntax-ns#"
   xmlns:svg="http://www.w3.org/2000/svg"
   xmlns="http://www.w3.org/2000/svg"
   xmlns:sodipodi="http://sodipodi.sourceforge.net/DTD/sodipodi-0.dtd"
   xmlns:inkscape="http://www.inkscape.org/namespaces/inkscape"
   width="1200pt"
   height="1200pt"
   version="1.1"
   viewBox="0 0 1200 1200"
   id="svg20"
   sodipodi:docname="FixedStrings.svg"
   inkscape:version="0.92.4 (5da689c313, 2019-01-14)"
   inkscape:export-filename="C:\code\FixedStrings\img\FixedStrings.png"
   inkscape:export-xdpi="30.719999"
   inkscape:export-ydpi="30.719999">
  <metadata
     id="metadata26">
    <rdf:RDF>
      <cc:Work
         rdf:about="">
        <dc:format>image/svg+xml</dc:format>
        <dc:type
           rdf:resource="http://purl.org/dc/dcmitype/StillImage" />
        <dc:title></dc:title>
      </cc:Work>
    </rdf:RDF>
  </metadata>
  <defs
     id="defs24" />
  <sodipodi:namedview
     pagecolor="#ffffff"
     bordercolor="#666666"
     borderopacity="1"
     objecttolerance="10"
     gridtolerance="10"
     guidetolerance="10"
     inkscape:pageopacity="0"
     inkscape:pageshadow="2"
     inkscape:window-width="3840"
     inkscape:window-height="2054"
     id="namedview22"
     showgrid="false"
     inkscape:zoom="0.834386"
     inkscape:cx="508.15428"
     inkscape:cy="847.86546"
     inkscape:window-x="-11"
     inkscape:window-y="-11"
     inkscape:window-maximized="1"
     inkscape:current-layer="svg20" />
  <path
     inkscape:connector-curvature="0"
     id="path2"
     d="M 975,75 H 225 C 142.293,75 75,142.293 75,225 v 450 c 0,82.707 67.293,150 150,150 h 262.5 v 75 h -51.82 c -28.602,0 -54.309,15.895 -67.09,41.457 l -64.637,129.27 c -5.8047,11.629 -5.1836,25.434 1.6484,36.492 6.832,11.039 18.898,17.777 31.898,17.777 h 525 c 13,0 25.066,-6.7383 31.898,-17.781 6.8281,-11.059 7.4531,-24.867 1.6484,-36.492 l -64.637,-129.27 C 818.6278,915.894 792.9208,900 764.3188,900 h -51.82 v -75 h 262.5 c 82.707,0 150,-67.293 150,-150 V 225 c 0,-82.707 -67.293,-150 -150,-150 z m -300,937.5 c 20.711,0 37.5,-16.789 37.5,-37.5 h 51.82 l 37.5,75 H 398.18 l 37.5,-75 h 51.82 c 0,20.711 16.789,37.5 37.5,37.5 20.711,0 37.5,-16.789 37.5,-37.5 V 825 h 75 v 150 c 0,20.711 16.789,37.5 37.5,37.5 z M 1050,675 c 0,41.363 -33.637,75 -75,75 H 225 c -41.363,0 -75,-33.637 -75,-75 V 225 c 0,-41.363 33.637,-75 75,-75 h 750 c 41.363,0 75,33.637 75,75 z"
     style="fill:#808080" />
  <path
     inkscape:connector-curvature="0"
     id="path4"
     d="m 325.27,234.8 c -15.324,-13.934 -39.02,-12.816 -52.973,2.4336 -112.46,123.29 -112.46,302.25 0,425.54 7.3984,8.1094 17.539,12.23 27.723,12.23 9.0078,0 18.055,-3.2422 25.25,-9.7969 15.309,-13.953 16.387,-37.684 2.4336,-52.973 -87.121,-95.527 -87.121,-228.94 0,-324.46 13.953,-15.285 12.875,-39.016 -2.4336,-52.969 z"
     style="fill:#008000" />
  <path
     inkscape:connector-curvature="0"
     id="path6"
     d="m 874.73,234.8 c -15.309,13.953 -16.387,37.684 -2.4336,52.973 87.121,95.527 87.121,228.94 0,324.46 -13.953,15.289 -12.871,39.02 2.4336,52.973 7.1953,6.5508 16.242,9.793 25.25,9.793 10.18,0 20.324,-4.1211 27.723,-12.23 112.46,-123.29 112.46,-302.25 0,-425.54 -13.934,-15.25 -37.629,-16.367 -52.973,-2.4336 z"
     style="fill:#008000" />
  <path
     inkscape:connector-curvature="0"
     id="path8"
     d="m 375,262.5 c -20.711,0 -37.5,16.789 -37.5,37.5 v 37.5 c 0,20.711 16.789,37.5 37.5,37.5 20.711,0 37.5,-16.789 37.5,-37.5 V 300 c 0,-20.711 -16.789,-37.5 -37.5,-37.5 z"
     style="fill:#ff0000" />
  <path
     inkscape:connector-curvature="0"
     id="path10"
     d="M 525,337.5 V 300 c 0,-20.711 -16.789,-37.5 -37.5,-37.5 -20.711,0 -37.5,16.789 -37.5,37.5 v 37.5 c 0,20.711 16.789,37.5 37.5,37.5 20.711,0 37.5,-16.789 37.5,-37.5 z"
     style="fill:#ff6600" />
  <path
     inkscape:connector-curvature="0"
     id="path12"
     d="m 712.5,262.5 c -20.711,0 -37.5,16.789 -37.5,37.5 v 37.5 c 0,20.711 16.789,37.5 37.5,37.5 20.711,0 37.5,-16.789 37.5,-37.5 V 300 c 0,-20.711 -16.789,-37.5 -37.5,-37.5 z"
     style="fill:#ffd42a" />
  <path
     inkscape:connector-curvature="0"
     id="path14"
     d="m 825,262.5 c -20.711,0 -37.5,16.789 -37.5,37.5 v 37.5 c 0,20.711 16.789,37.5 37.5,37.5 20.711,0 37.5,-16.789 37.5,-37.5 V 300 c 0,-20.711 -16.789,-37.5 -37.5,-37.5 z"
     style="fill:#aad400" />
  <path
     inkscape:connector-curvature="0"
     id="path16"
     d="M 675,562.5 H 525 c -20.711,0 -37.5,16.789 -37.5,37.5 0,20.711 16.789,37.5 37.5,37.5 h 150 c 20.711,0 37.5,-16.789 37.5,-37.5 0,-20.711 -16.789,-37.5 -37.5,-37.5 z"
     style="fill:#00aad4" />
</svg>
